<mxfile host="app.diagrams.net" modified="2022-11-14T15:15:34.794Z" agent="5.0 (Windows NT 10.0; Win64; x64) AppleWebKit/537.36 (KHTML, like Gecko) Chrome/107.0.0.0 Safari/537.36" etag="RKBqaSssihV3sk-HhKy2" version="20.5.1" type="github">
  <diagram name="Page-1" id="e7e014a7-5840-1c2e-5031-d8a46d1fe8dd">
    <mxGraphModel dx="862" dy="450" grid="1" gridSize="10" guides="1" tooltips="1" connect="1" arrows="1" fold="1" page="1" pageScale="1" pageWidth="1169" pageHeight="826" background="none" math="0" shadow="0">
      <root>
        <mxCell id="0" />
        <mxCell id="1" parent="0" />
        <mxCell id="2" value="Thread 1" style="swimlane;whiteSpace=wrap" parent="1" vertex="1">
          <mxGeometry x="164.5" y="128" width="280" height="642" as="geometry" />
        </mxCell>
        <mxCell id="5" value="" style="ellipse;shape=startState;fillColor=#000000;strokeColor=#ff0000;" parent="2" vertex="1">
          <mxGeometry x="100" y="40" width="30" height="30" as="geometry" />
        </mxCell>
        <mxCell id="6" value="" style="edgeStyle=elbowEdgeStyle;elbow=horizontal;verticalAlign=bottom;endArrow=open;endSize=8;strokeColor=#FF0000;endFill=1;rounded=0" parent="2" source="5" target="7" edge="1">
          <mxGeometry x="100" y="40" as="geometry">
            <mxPoint x="115" y="110" as="targetPoint" />
          </mxGeometry>
        </mxCell>
        <mxCell id="7" value="search returant" style="" parent="2" vertex="1">
          <mxGeometry x="60" y="110" width="110" height="50" as="geometry" />
        </mxCell>
        <mxCell id="3" value="Thread 2" style="swimlane;whiteSpace=wrap;rounded=0;" parent="1" vertex="1">
          <mxGeometry x="444.5" y="128" width="280" height="647" as="geometry" />
        </mxCell>
        <mxCell id="U-bAOUnD1YEyR0BJdtge-72" style="edgeStyle=orthogonalEdgeStyle;rounded=0;jumpStyle=none;orthogonalLoop=1;jettySize=auto;html=1;entryX=0.505;entryY=-0.02;entryDx=0;entryDy=0;entryPerimeter=0;strokeColor=#FF3333;" edge="1" parent="3" target="16">
          <mxGeometry relative="1" as="geometry">
            <mxPoint x="75.5" y="162" as="sourcePoint" />
          </mxGeometry>
        </mxCell>
        <mxCell id="15" value="display menuÂ " style="" parent="3" vertex="1">
          <mxGeometry x="20" y="110" width="110" height="50" as="geometry" />
        </mxCell>
        <mxCell id="U-bAOUnD1YEyR0BJdtge-76" style="edgeStyle=orthogonalEdgeStyle;rounded=0;jumpStyle=none;orthogonalLoop=1;jettySize=auto;html=1;entryX=0.495;entryY=-0.06;entryDx=0;entryDy=0;entryPerimeter=0;strokeColor=#FF3333;" edge="1" parent="3" source="16" target="18">
          <mxGeometry relative="1" as="geometry" />
        </mxCell>
        <mxCell id="16" value="get menu data" style="" parent="3" vertex="1">
          <mxGeometry x="20" y="220" width="110" height="50" as="geometry" />
        </mxCell>
        <mxCell id="18" value="display menu items" style="" parent="3" vertex="1">
          <mxGeometry x="20" y="325" width="110" height="50" as="geometry" />
        </mxCell>
        <mxCell id="U-bAOUnD1YEyR0BJdtge-64" style="edgeStyle=orthogonalEdgeStyle;rounded=0;jumpStyle=none;orthogonalLoop=1;jettySize=auto;html=1;entryX=0.455;entryY=-0.06;entryDx=0;entryDy=0;entryPerimeter=0;strokeColor=#FF3333;" edge="1" parent="3" source="21" target="30">
          <mxGeometry relative="1" as="geometry" />
        </mxCell>
        <mxCell id="U-bAOUnD1YEyR0BJdtge-65" style="edgeStyle=orthogonalEdgeStyle;rounded=0;jumpStyle=none;orthogonalLoop=1;jettySize=auto;html=1;entryX=1.05;entryY=0.44;entryDx=0;entryDy=0;entryPerimeter=0;strokeColor=#FF3333;" edge="1" parent="3" source="21" target="15">
          <mxGeometry relative="1" as="geometry">
            <Array as="points">
              <mxPoint x="196" y="135" />
              <mxPoint x="136" y="135" />
            </Array>
          </mxGeometry>
        </mxCell>
        <mxCell id="21" value="returant avilabel" style="rhombus;fillColor=#ffffc0;strokeColor=#ff0000;" parent="3" vertex="1">
          <mxGeometry x="150" y="225" width="80" height="40" as="geometry" />
        </mxCell>
        <mxCell id="30" value="no resturant found" style="" parent="3" vertex="1">
          <mxGeometry x="140" y="325" width="110" height="50" as="geometry" />
        </mxCell>
        <mxCell id="U-bAOUnD1YEyR0BJdtge-55" style="edgeStyle=orthogonalEdgeStyle;rounded=0;jumpStyle=none;orthogonalLoop=1;jettySize=auto;html=1;entryX=0.477;entryY=0;entryDx=0;entryDy=0;entryPerimeter=0;strokeColor=#FF3333;" edge="1" parent="3" source="U-bAOUnD1YEyR0BJdtge-49" target="U-bAOUnD1YEyR0BJdtge-54">
          <mxGeometry relative="1" as="geometry" />
        </mxCell>
        <mxCell id="U-bAOUnD1YEyR0BJdtge-49" value="add recipies to list" style="" vertex="1" parent="3">
          <mxGeometry x="20" y="422" width="110" height="50" as="geometry" />
        </mxCell>
        <mxCell id="U-bAOUnD1YEyR0BJdtge-53" value="" style="endArrow=classic;html=1;rounded=0;strokeColor=#FF3333;jumpStyle=none;entryX=0.505;entryY=-0.04;entryDx=0;entryDy=0;entryPerimeter=0;exitX=0.514;exitY=0.98;exitDx=0;exitDy=0;exitPerimeter=0;" edge="1" parent="3" source="18" target="U-bAOUnD1YEyR0BJdtge-49">
          <mxGeometry width="50" height="50" relative="1" as="geometry">
            <mxPoint x="75.5" y="382" as="sourcePoint" />
            <mxPoint x="5.5" y="392" as="targetPoint" />
          </mxGeometry>
        </mxCell>
        <mxCell id="U-bAOUnD1YEyR0BJdtge-79" style="edgeStyle=orthogonalEdgeStyle;rounded=0;jumpStyle=none;orthogonalLoop=1;jettySize=auto;html=1;entryX=0.5;entryY=0;entryDx=0;entryDy=0;strokeColor=#FF3333;fontSize=18;" edge="1" parent="3" source="U-bAOUnD1YEyR0BJdtge-54" target="U-bAOUnD1YEyR0BJdtge-77">
          <mxGeometry relative="1" as="geometry" />
        </mxCell>
        <mxCell id="U-bAOUnD1YEyR0BJdtge-54" value="search command" style="" vertex="1" parent="3">
          <mxGeometry x="150" y="472" width="110" height="50" as="geometry" />
        </mxCell>
        <mxCell id="U-bAOUnD1YEyR0BJdtge-77" value="" style="ellipse;html=1;shape=endState;fillColor=#000000;strokeColor=#ff0000;rounded=0;strokeWidth=1;fontSize=18;" vertex="1" parent="3">
          <mxGeometry x="190" y="602" width="30" height="30" as="geometry" />
        </mxCell>
        <mxCell id="U-bAOUnD1YEyR0BJdtge-63" style="edgeStyle=orthogonalEdgeStyle;rounded=0;jumpStyle=none;orthogonalLoop=1;jettySize=auto;html=1;entryX=0.014;entryY=0.5;entryDx=0;entryDy=0;entryPerimeter=0;strokeColor=#FF3333;" edge="1" parent="1" source="7" target="15">
          <mxGeometry relative="1" as="geometry" />
        </mxCell>
      </root>
    </mxGraphModel>
  </diagram>
</mxfile>
